<svg version="1.0" xmlns="http://www.w3.org/2000/svg"
     width="40pt" height="40pt" viewBox="0 0 985.000000 834.000000"
     preserveAspectRatio="xMidYMid meet">

    <g transform="translate(0.000000,834.000000) scale(0.100000,-0.100000)" stroke="none">
        <path fill="#3B82F6" fill-opacity="0.9" d="M2370 7855 c-138 -31 -276 -131 -343 -247 -124 -215 -70 -564 133
-863 149 -218 317 -361 570 -484 57 -28 99 -51 94 -51 -16 0 -343 -48 -544
-80 -865 -136 -1361 -396 -1643 -860 -139 -229 -189 -479 -167 -842 30 -507
240 -999 644 -1508 86 -109 327 -346 426 -419 68 -51 174 -114 235 -140 5 -2
-4 14 -21 35 -71 93 -171 258 -244 404 -91 181 -187 475 -227 690 -25 136 -25
586 -1 715 27 142 85 330 138 447 262 579 754 994 1463 1234 87 30 179 56 205
60 44 5 39 2 -68 -51 -622 -307 -1071 -793 -1328 -1435 -121 -301 -169 -565
-159 -875 7 -190 8 -206 33 -325 81 -383 271 -747 601 -1152 51 -62 198 -247
301 -377 84 -105 127 -157 276 -326 100 -114 104 -117 78 -75 -11 19 -42 71
-68 115 -124 211 -264 509 -338 720 -126 362 -186 714 -188 1100 -2 491 95
913 310 1359 93 192 161 310 295 511 141 212 146 217 497 655 228 283 328 479
318 620 -10 141 -63 192 -579 560 -132 94 -206 139 -193 118 4 -7 29 -38 55
-68 26 -30 83 -105 127 -167 45 -61 124 -165 177 -229 160 -198 163 -263 15
-281 -58 -7 -142 21 -270 89 -207 109 -380 250 -490 398 -57 77 -123 209 -146
295 -24 91 -30 259 -11 326 60 206 350 199 687 -16 186 -118 307 -223 419
-365 101 -127 222 -313 259 -399 l17 -40 44 97 c49 107 138 240 189 282 l33
27 -55 7 c-128 15 -236 76 -407 230 -491 444 -882 641 -1149 581z"/>
        <path fill="#3B82F6" fill-opacity="0.9" d="M3807 7675 c-89 -34 -168 -114 -223 -227 l-38 -78 25 -26 c13 -15 55
-48 93 -75 102 -72 191 -97 385 -109 467 -29 1024 -145 1358 -284 116 -48 205
-88 563 -251 63 -29 137 -62 164 -74 l48 -21 -38 -47 c-21 -27 -52 -65 -70
-85 -76 -86 -71 -230 13 -375 26 -46 38 -56 28 -24 -3 11 -6 61 -6 111 -1 78
3 99 25 143 14 29 39 66 56 82 l30 29 56 -54 c84 -83 129 -158 168 -280 20
-59 38 -126 42 -149 8 -53 20 -52 30 2 18 105 -2 250 -48 345 -28 58 -119 155
-169 180 -25 13 -47 33 -59 56 l-18 37 21 -6 c44 -12 325 -155 432 -220 135
-82 223 -153 276 -222 44 -57 64 -111 80 -218 17 -117 36 -161 92 -218 29 -29
216 -203 417 -386 606 -554 585 -535 717 -664 108 -105 163 -182 163 -229 0
-42 -147 -44 -263 -4 -88 30 -103 31 -194 10 -109 -26 -156 -17 -259 49 -49
30 -90 54 -92 52 -2 -2 8 -30 22 -62 22 -48 58 -89 205 -233 170 -167 179
-178 191 -229 34 -144 -37 -332 -171 -457 -109 -100 -461 -298 -631 -355 -79
-27 -103 -31 -163 -27 -43 3 -87 13 -115 27 -25 11 -36 19 -25 15 52 -15 124
-15 190 1 67 16 295 119 295 133 0 4 -46 7 -103 8 -154 1 -242 31 -438 149
-52 32 -118 63 -153 72 -113 29 -274 0 -426 -77 -32 -16 -61 -34 -65 -40 -3
-5 -16 -15 -28 -21 -46 -24 26 43 94 87 184 120 370 127 610 24 180 -78 293
-98 424 -76 l50 8 -58 29 c-118 60 -546 239 -623 260 -95 27 -237 31 -334 10
-115 -25 -287 -108 -352 -169 -16 -14 -28 -21 -28 -16 0 12 61 70 110 105 62
45 109 68 198 100 70 26 107 32 195 37 134 6 178 -3 420 -83 234 -77 316 -90
509 -82 157 6 261 29 332 73 l41 25 -50 -8 c-83 -13 -303 -8 -403 10 -128 23
-318 96 -453 173 -207 118 -211 119 -324 119 -64 0 -127 -7 -175 -19 -156 -38
-366 -161 -477 -277 -52 -55 -153 -197 -153 -215 0 -15 82 -158 142 -246 21
-32 41 -65 45 -74 5 -15 3 -15 -26 1 -71 36 -165 144 -219 251 l-21 41 33 49
c59 88 97 168 83 175 -6 4 -73 17 -147 30 -191 34 -456 34 -580 1 -91 -24
-197 -71 -291 -127 -31 -19 -59 -35 -63 -35 -8 0 79 132 135 205 90 117 269
268 389 330 104 53 169 53 234 -2 16 -13 52 -36 80 -51 43 -22 64 -27 131 -27
70 0 88 4 148 33 38 19 107 66 155 106 173 146 279 202 528 281 126 40 220 96
248 148 49 90 -13 95 -202 14 -72 -31 -137 -57 -143 -57 -6 0 7 21 29 46 23
25 49 71 60 102 11 31 23 66 27 77 l7 20 -13 -20 c-52 -87 -212 -202 -333
-241 -184 -58 -351 -66 -586 -29 -136 21 -260 19 -348 -5 -107 -30 -190 -76
-342 -189 -196 -145 -448 -315 -529 -355 -145 -74 -292 -116 -400 -116 -34 0
-61 -4 -61 -8 0 -11 145 -157 210 -213 118 -100 283 -175 473 -215 38 -8 138
-19 221 -24 171 -12 259 -24 331 -46 28 -9 188 -83 357 -165 168 -82 326 -156
350 -165 112 -44 401 -202 563 -309 99 -66 215 -134 258 -153 162 -70 282 -64
373 20 66 61 126 197 139 318 l6 55 82 22 c45 13 125 34 177 48 54 15 114 25
139 23 44 -3 45 -4 80 -72 34 -65 36 -74 36 -165 0 -91 -2 -101 -35 -167 -47
-94 -177 -224 -285 -287 -87 -50 -273 -117 -326 -117 l-33 0 44 46 c28 30 38
44 25 40 -116 -43 -349 -47 -424 -8 -58 31 -51 11 17 -44 119 -98 263 -133
428 -103 277 49 551 207 670 387 83 124 105 267 63 407 -37 125 -40 112 50
188 97 83 210 202 261 277 79 117 111 204 150 412 29 151 41 179 115 265 86
101 105 142 105 226 0 109 -39 179 -199 356 -150 167 -457 467 -1032 1009 -73
69 -104 127 -118 227 -12 83 -52 183 -97 242 -139 183 -1201 733 -1824 946
-152 52 -412 128 -540 158 -139 32 -292 88 -328 120 -18 16 -69 71 -112 122
-92 107 -149 154 -244 198 -81 38 -178 48 -239 24z m4359 -4098 c-18 -61 -74
-150 -141 -225 -55 -61 -195 -178 -195 -163 0 5 5 13 10 16 15 9 150 181 199
253 23 34 63 106 89 160 l47 97 3 -43 c2 -23 -4 -66 -12 -95z"/>
        <path fill="#3B82F6" fill-opacity="0.9" d="M4303 7012 c-152 -54 -261 -204 -377 -517 -31 -82 -87 -213 -125
-290 -38 -77 -68 -142 -66 -144 2 -2 41 30 86 70 91 83 154 161 317 394 193
278 280 366 395 399 65 19 285 40 345 33 68 -7 43 3 -85 36 -101 26 -141 30
-278 34 -136 3 -168 1 -212 -15z"/>
        <path fill="#3B82F6" fill-opacity="0.9" d="M1735 6861 c-437 -150 -696 -309 -901 -554 -163 -194 -279 -409 -343
-639 -25 -89 -62 -319 -50 -312 5 3 9 11 9 18 0 16 89 144 155 222 257 306
659 511 1270 649 167 37 373 73 510 88 l30 3 -34 19 c-209 121 -394 315 -475
500 -14 30 -26 55 -28 54 -2 0 -66 -22 -143 -48z"/>
        <path fill="#3B82F6" fill-opacity="0.9" d="M4898 6821 c-76 -25 -119 -53 -172 -112 -57 -63 -87 -142 -94 -241
-14 -229 143 -413 418 -487 112 -30 190 -40 392 -51 165 -8 195 -12 306 -45
68 -19 153 -47 189 -60 36 -14 68 -25 71 -25 4 0 -14 21 -38 46 -68 69 -233
175 -349 223 -90 37 -124 45 -255 62 -244 30 -309 52 -382 124 -51 52 -74 101
-74 162 0 88 51 153 165 209 83 41 153 51 405 61 245 9 250 11 110 56 -206 67
-319 88 -485 93 -128 4 -158 1 -207 -15z"/>
        <path fill="#3B82F6" fill-opacity="0.9" d="M5675 6512 c-54 -25 -75 -59 -75 -121 0 -60 42 -146 103 -210 68 -70
434 -349 460 -351 4 0 -29 42 -75 94 -137 156 -181 244 -182 361 -1 80 16 119
71 170 l35 32 -68 18 c-108 27 -220 30 -269 7z"/>
        <path fill="#3B82F6" fill-opacity="0.9" d="M4366 6394 c-27 -114 -33 -351 -12 -479 13 -87 14 -108 2 -166 -24
-113 -45 -150 -184 -328 -112 -144 -171 -236 -218 -341 -54 -120 -73 -192 -80
-305 -8 -121 8 -222 53 -330 67 -162 49 -250 -77 -387 l-62 -68 52 0 c63 0
233 34 302 60 27 10 80 37 116 59 105 63 99 57 80 78 -22 25 -84 149 -97 198
-7 22 -14 94 -18 161 -6 132 6 250 37 339 54 158 214 418 325 529 67 67 95 81
95 47 0 -11 14 -31 31 -45 23 -20 42 -26 78 -26 85 0 149 63 172 168 7 31 15
60 18 64 3 4 30 -8 60 -27 30 -19 83 -44 119 -56 67 -22 110 -23 415 -3 93 6
99 5 137 -20 21 -14 89 -84 149 -155 109 -127 175 -182 242 -201 25 -7 42 -5
77 10 76 34 115 27 217 -34 125 -76 177 -106 182 -106 3 0 -6 15 -19 33 -140
185 -202 301 -169 321 4 3 77 -67 161 -157 221 -233 211 -224 218 -208 3 8 22
33 42 55 l38 40 63 -39 c35 -21 91 -57 124 -80 81 -57 155 -99 161 -92 10 9
-41 108 -82 163 -47 61 -95 104 -194 174 -208 148 -277 225 -374 418 l-46 92
-38 -24 c-20 -14 -65 -33 -100 -42 -59 -17 -71 -17 -238 0 -139 15 -214 17
-367 11 -318 -12 -438 19 -837 212 -155 75 -271 153 -356 238 -80 80 -128 157
-159 258 l-21 71 -18 -80z m1676 -879 c-4 -50 -2 -57 26 -85 67 -67 156 -12
143 88 -3 19 17 14 29 -7 43 -81 -53 -188 -145 -162 -69 19 -125 81 -125 141
0 21 50 80 68 80 5 0 7 -25 4 -55z"/>
        <path fill="#3B82F6" fill-opacity="0.9" d="M6570 6207 c0 -47 4 -58 21 -67 25 -14 49 2 49 34 0 24 -11 40 -47
70 l-23 19 0 -56z"/>
        <path fill="#3B82F6" fill-opacity="0.9" d="M6166 6128 c-40 -57 3 -188 79 -241 39 -27 114 -41 131 -25 3 4 -9
26 -29 50 -19 24 -64 87 -100 141 -65 96 -66 97 -81 75z"/>
        <path fill="#3B82F6" fill-opacity="0.9" d="M6766 6083 c-4 -10 2 -25 15 -40 25 -25 44 -30 51 -10 8 20 -2 37
-32 52 -25 13 -29 13 -34 -2z"/>
        <path fill="#3B82F6" fill-opacity="0.9" d="M6604 6026 c-17 -44 39 -107 69 -77 15 15 -6 56 -40 79 -20 13 -23
13 -29 -2z"/>
        <path fill="#3B82F6" fill-opacity="0.9" d="M4057 5971 c-15 -22 -98 -113 -184 -203 -87 -90 -197 -210 -244 -268
-296 -361 -470 -750 -536 -1199 -22 -152 -22 -482 2 -676 80 -670 329 -1351
732 -2004 158 -255 305 -454 590 -796 230 -275 384 -567 412 -780 l7 -50 17
55 c55 184 70 312 57 470 -31 350 -174 755 -408 1156 -26 45 -95 167 -154 270
-58 104 -121 214 -138 244 -46 82 -324 645 -355 720 -217 528 -318 1047 -286
1468 33 441 106 693 365 1259 99 216 159 363 152 370 -2 2 -15 -14 -29 -36z"/>
        <path fill="#3B82F6" fill-opacity="0.9" d="M6872 5918 c-29 -29 6 -83 50 -76 17 2 24 10 26 31 5 44 -47 74 -76
45z"/>
        <path fill="#3B82F6" fill-opacity="0.9" d="M6730 5845 c0 -12 35 -75 42 -75 15 0 8 47 -10 63 -18 17 -32 22 -32
12z"/>
        <path fill="#3B82F6" fill-opacity="0.9" d="M6732 5668 c2 -18 9 -23 33 -23 23 0 30 4 30 20 0 15 -8 21 -33 23
-30 3 -33 1 -30 -20z"/>
        <path fill="#3B82F6" fill-opacity="0.9" d="M5465 5454 c-158 -71 -176 -76 -235 -71 -30 3 -62 8 -72 12 -13 5
-12 -5 10 -62 24 -62 26 -81 26 -203 -1 -120 -5 -151 -36 -275 -19 -77 -34
-141 -34 -142 1 -1 26 10 56 25 43 21 71 27 145 30 82 4 100 1 176 -26 365
-130 349 -125 454 -130 181 -8 303 37 427 159 38 39 68 72 65 75 -2 3 -20 -4
-38 -15 -75 -43 -145 -56 -319 -55 -125 0 -181 4 -230 17 -152 41 -272 133
-333 256 -31 63 -32 71 -32 186 0 114 2 123 32 188 18 37 29 67 25 67 -4 0
-43 -16 -87 -36z"/>
        <path fill="#3B82F6" fill-opacity="0.9" d="M5606 5358 c-3 -13 -6 -45 -6 -72 0 -186 262 -358 543 -355 l72 0
-83 25 c-177 52 -254 107 -406 293 -60 72 -110 131 -111 131 -1 0 -5 -10 -9
-22z"/>
        <path fill="#3B82F6" fill-opacity="0.9" d="M4972 5296 c-22 -29 -86 -101 -142 -159 -200 -209 -233 -271 -265
-502 -8 -60 -20 -136 -27 -168 -6 -32 -8 -60 -5 -63 15 -16 138 67 218 146
114 113 177 235 214 415 20 96 57 385 49 385 -1 0 -20 -24 -42 -54z"/>
        <path fill="#3B82F6" fill-opacity="0.9" d="M2988 5028 c-268 -377 -443 -796 -525 -1254 -26 -145 -26 -732 0
-884 71 -416 211 -807 422 -1180 54 -96 190 -303 238 -363 30 -36 255 -307
352 -422 131 -155 265 -347 342 -490 l43 -80 0 122 c0 154 -12 244 -56 412
-45 174 -110 332 -252 616 -359 719 -563 1252 -677 1770 -112 506 -120 820
-29 1175 47 182 145 491 194 610 16 39 27 70 25 70 -2 0 -37 -46 -77 -102z"/>
        <path fill="#3B82F6" fill-opacity="0.9" d="M7125 4320 c-24 -27 -5 -50 42 -50 38 0 50 18 33 49 -14 27 -51 27
-75 1z"/>
        <path fill="#3B82F6" fill-opacity="0.9" d="M6962 4308 c3 -7 17 -14 32 -16 20 -3 27 0 24 10 -3 7 -17 14 -32 16
-20 3 -27 0 -24 -10z"/>
        <path fill="#3B82F6" fill-opacity="0.9" d="M6611 4249 c-263 -31 -513 -176 -675 -393 -46 -61 -66 -96 -45 -80
228 180 446 252 731 241 119 -4 154 -10 329 -55 320 -84 482 -100 647 -66 99
20 122 33 62 34 -63 1 -222 25 -300 45 -88 23 -264 92 -325 128 -27 16 -72 54
-100 83 -44 48 -57 56 -104 64 -61 11 -115 11 -220 -1z"/>
        <path fill="#3B82F6" fill-opacity="0.9" d="M7450 4122 c0 -14 71 -72 87 -72 7 0 13 5 13 10 0 12 -49 60 -61 60
-4 0 -14 3 -23 6 -9 3 -16 1 -16 -4z"/>
        <path fill="#3B82F6" fill-opacity="0.9" d="M7247 4106 c-8 -21 37 -58 74 -59 47 -3 51 26 7 53 -38 23 -74 26
-81 6z"/>
        <path fill="#3B82F6" fill-opacity="0.9" d="M7420 3474 c0 -7 18 -32 39 -54 42 -44 74 -50 79 -14 4 26 -22 49
-75 67 -35 12 -43 12 -43 1z"/>
        <path fill="#3B82F6" fill-opacity="0.9" d="M7626 3445 c9 -22 44 -40 44 -22 0 17 -20 37 -37 37 -7 0 -10 -7 -7
-15z"/>
        <path fill="#3B82F6" fill-opacity="0.9" d="M4214 3188 c3 -18 13 -82 21 -143 36 -263 132 -556 258 -783 63 -113
180 -294 438 -679 231 -345 319 -514 383 -738 23 -81 51 -232 58 -310 3 -25
10 -13 44 70 93 224 118 341 118 565 0 193 -22 329 -85 525 -149 465 -568
1006 -1099 1421 -149 117 -142 113 -136 72z"/>
        <path fill="#3B82F6" fill-opacity="0.9" d="M4922 3030 c2 -4 75 -70 164 -147 308 -270 427 -429 507 -679 40
-125 120 -307 188 -429 68 -122 135 -273 155 -350 8 -27 14 -79 14 -114 0 -39
4 -61 9 -55 18 18 70 191 93 304 19 95 23 145 22 290 0 163 -3 183 -31 292
-17 64 -50 156 -73 205 -44 95 -137 243 -152 243 -5 0 -7 4 -4 9 6 9 233 -79
363 -141 92 -44 85 -31 -53 101 -110 105 -196 168 -319 235 -72 40 -244 112
-330 139 -74 23 -318 74 -415 87 -127 16 -141 17 -138 10z"/>
    </g>
</svg>
